<svg xmlns="http://www.w3.org/2000/svg" viewBox="0 0 81 81" shape-rendering="crispEdges" role="img" aria-label="QR code for a Zcash unified address"><rect width="81" height="81" rx="3" fill="#fbf1c7"/><path fill="#282828" d="M4 4h7v1h-7zM12 4h1v1h-1zM17 4h2v1h-2zM21 4h1v1h-1zM23 4h2v1h-2zM26 4h1v1h-1zM28 4h1v1h-1zM30 4h2v1h-2zM34 4h1v1h-1zM37 4h3v1h-3zM41 4h1v1h-1zM45 4h1v1h-1zM48 4h3v1h-3zM52 4h1v1h-1zM55 4h2v1h-2zM58 4h1v1h-1zM61 4h4v1h-4zM66 4h1v1h-1zM68 4h1v1h-1zM70 4h7v1h-7zM4 5h1v1h-1zM10 5h1v1h-1zM12 5h2v1h-2zM15 5h1v1h-1zM17 5h2v1h-2zM20 5h5v1h-5zM28 5h2v1h-2zM31 5h1v1h-1zM33 5h1v1h-1zM35 5h2v1h-2zM39 5h4v1h-4zM45 5h1v1h-1zM48 5h2v1h-2zM53 5h2v1h-2zM56 5h3v1h-3zM60 5h1v1h-1zM62 5h1v1h-1zM66 5h1v1h-1zM70 5h1v1h-1zM76 5h1v1h-1zM4 6h1v1h-1zM6 6h3v1h-3zM10 6h1v1h-1zM12 6h3v1h-3zM16 6h1v1h-1zM19 6h1v1h-1zM21 6h1v1h-1zM23 6h2v1h-2zM29 6h2v1h-2zM32 6h3v1h-3zM37 6h2v1h-2zM40 6h1v1h-1zM43 6h2v1h-2zM46 6h1v1h-1zM51 6h1v1h-1zM53 6h1v1h-1zM56 6h2v1h-2zM59 6h2v1h-2zM62 6h2v1h-2zM65 6h1v1h-1zM70 6h1v1h-1zM72 6h3v1h-3zM76 6h1v1h-1zM4 7h1v1h-1zM6 7h3v1h-3zM10 7h1v1h-1zM15 7h3v1h-3zM19 7h1v1h-1zM21 7h1v1h-1zM28 7h3v1h-3zM36 7h2v1h-2zM50 7h2v1h-2zM54 7h2v1h-2zM57 7h1v1h-1zM60 7h2v1h-2zM66 7h2v1h-2zM70 7h1v1h-1zM72 7h3v1h-3zM76 7h1v1h-1zM4 8h1v1h-1zM6 8h3v1h-3zM10 8h1v1h-1zM13 8h3v1h-3zM18 8h1v1h-1zM20 8h2v1h-2zM24 8h11v1h-11zM36 8h4v1h-4zM43 8h1v1h-1zM47 8h6v1h-6zM56 8h6v1h-6zM67 8h2v1h-2zM70 8h1v1h-1zM72 8h3v1h-3zM76 8h1v1h-1zM4 9h1v1h-1zM10 9h1v1h-1zM12 9h3v1h-3zM16 9h2v1h-2zM19 9h2v1h-2zM23 9h2v1h-2zM26 9h3v1h-3zM32 9h2v1h-2zM39 9h2v1h-2zM43 9h6v1h-6zM52 9h5v1h-5zM60 9h1v1h-1zM62 9h1v1h-1zM65 9h2v1h-2zM70 9h1v1h-1zM76 9h1v1h-1zM4 10h7v1h-7zM12 10h1v1h-1zM14 10h1v1h-1zM16 10h1v1h-1zM18 10h1v1h-1zM20 10h1v1h-1zM22 10h1v1h-1zM24 10h1v1h-1zM26 10h1v1h-1zM28 10h1v1h-1zM30 10h1v1h-1zM32 10h1v1h-1zM34 10h1v1h-1zM36 10h1v1h-1zM38 10h1v1h-1zM40 10h1v1h-1zM42 10h1v1h-1zM44 10h1v1h-1zM46 10h1v1h-1zM48 10h1v1h-1zM50 10h1v1h-1zM52 10h1v1h-1zM54 10h1v1h-1zM56 10h1v1h-1zM58 10h1v1h-1zM60 10h1v1h-1zM62 10h1v1h-1zM64 10h1v1h-1zM66 10h1v1h-1zM68 10h1v1h-1zM70 10h7v1h-7zM12 11h1v1h-1zM14 11h1v1h-1zM16 11h2v1h-2zM19 11h1v1h-1zM23 11h2v1h-2zM26 11h3v1h-3zM32 11h1v1h-1zM34 11h2v1h-2zM37 11h1v1h-1zM43 11h1v1h-1zM45 11h4v1h-4zM52 11h1v1h-1zM58 11h9v1h-9zM6 12h3v1h-3zM10 12h1v1h-1zM12 12h3v1h-3zM16 12h3v1h-3zM21 12h1v1h-1zM23 12h2v1h-2zM26 12h8v1h-8zM35 12h3v1h-3zM39 12h3v1h-3zM43 12h1v1h-1zM45 12h1v1h-1zM47 12h6v1h-6zM54 12h2v1h-2zM58 12h1v1h-1zM60 12h2v1h-2zM68 12h4v1h-4zM74 12h3v1h-3zM6 13h2v1h-2zM11 13h1v1h-1zM14 13h2v1h-2zM21 13h1v1h-1zM23 13h3v1h-3zM27 13h4v1h-4zM32 13h2v1h-2zM35 13h2v1h-2zM38 13h2v1h-2zM42 13h1v1h-1zM45 13h2v1h-2zM49 13h3v1h-3zM58 13h1v1h-1zM61 13h4v1h-4zM66 13h2v1h-2zM69 13h1v1h-1zM73 13h1v1h-1zM76 13h1v1h-1zM9 14h2v1h-2zM13 14h5v1h-5zM19 14h1v1h-1zM21 14h2v1h-2zM24 14h1v1h-1zM26 14h2v1h-2zM30 14h2v1h-2zM33 14h2v1h-2zM39 14h4v1h-4zM45 14h4v1h-4zM52 14h3v1h-3zM57 14h2v1h-2zM60 14h1v1h-1zM62 14h1v1h-1zM64 14h2v1h-2zM69 14h5v1h-5zM75 14h1v1h-1zM4 15h4v1h-4zM9 15h1v1h-1zM13 15h1v1h-1zM15 15h1v1h-1zM17 15h7v1h-7zM29 15h2v1h-2zM32 15h1v1h-1zM35 15h1v1h-1zM37 15h1v1h-1zM39 15h1v1h-1zM42 15h10v1h-10zM54 15h3v1h-3zM59 15h2v1h-2zM62 15h2v1h-2zM66 15h3v1h-3zM71 15h1v1h-1zM73 15h2v1h-2zM4 16h7v1h-7zM13 16h3v1h-3zM21 16h4v1h-4zM26 16h1v1h-1zM29 16h1v1h-1zM32 16h1v1h-1zM34 16h6v1h-6zM41 16h2v1h-2zM44 16h9v1h-9zM54 16h1v1h-1zM57 16h2v1h-2zM61 16h1v1h-1zM65 16h2v1h-2zM69 16h3v1h-3zM74 16h2v1h-2zM7 17h1v1h-1zM9 17h1v1h-1zM12 17h2v1h-2zM16 17h5v1h-5zM23 17h1v1h-1zM31 17h5v1h-5zM37 17h2v1h-2zM40 17h1v1h-1zM42 17h2v1h-2zM45 17h2v1h-2zM48 17h1v1h-1zM50 17h2v1h-2zM54 17h1v1h-1zM56 17h1v1h-1zM58 17h4v1h-4zM63 17h2v1h-2zM67 17h2v1h-2zM70 17h1v1h-1zM72 17h1v1h-1zM74 17h1v1h-1zM4 18h1v1h-1zM7 18h1v1h-1zM10 18h1v1h-1zM12 18h3v1h-3zM17 18h1v1h-1zM20 18h2v1h-2zM25 18h5v1h-5zM31 18h1v1h-1zM33 18h1v1h-1zM36 18h1v1h-1zM38 18h2v1h-2zM46 18h2v1h-2zM50 18h5v1h-5zM57 18h1v1h-1zM59 18h2v1h-2zM62 18h1v1h-1zM64 18h4v1h-4zM70 18h3v1h-3zM75 18h2v1h-2zM9 19h1v1h-1zM12 19h2v1h-2zM16 19h3v1h-3zM20 19h2v1h-2zM23 19h1v1h-1zM27 19h1v1h-1zM29 19h1v1h-1zM31 19h1v1h-1zM34 19h2v1h-2zM37 19h2v1h-2zM41 19h1v1h-1zM43 19h2v1h-2zM46 19h3v1h-3zM50 19h2v1h-2zM55 19h1v1h-1zM57 19h4v1h-4zM63 19h1v1h-1zM65 19h1v1h-1zM69 19h1v1h-1zM71 19h1v1h-1zM7 20h2v1h-2zM10 20h3v1h-3zM14 20h1v1h-1zM16 20h2v1h-2zM19 20h2v1h-2zM24 20h3v1h-3zM29 20h1v1h-1zM31 20h2v1h-2zM35 20h1v1h-1zM37 20h5v1h-5zM43 20h1v1h-1zM46 20h1v1h-1zM48 20h2v1h-2zM53 20h3v1h-3zM57 20h2v1h-2zM61 20h2v1h-2zM64 20h3v1h-3zM68 20h1v1h-1zM71 20h4v1h-4zM4 21h1v1h-1zM6 21h1v1h-1zM8 21h1v1h-1zM13 21h1v1h-1zM15 21h1v1h-1zM19 21h4v1h-4zM25 21h6v1h-6zM35 21h2v1h-2zM38 21h2v1h-2zM43 21h6v1h-6zM52 21h1v1h-1zM55 21h1v1h-1zM58 21h2v1h-2zM61 21h1v1h-1zM64 21h1v1h-1zM67 21h4v1h-4zM73 21h2v1h-2zM5 22h2v1h-2zM9 22h2v1h-2zM12 22h3v1h-3zM18 22h1v1h-1zM20 22h6v1h-6zM27 22h1v1h-1zM30 22h4v1h-4zM36 22h3v1h-3zM41 22h1v1h-1zM43 22h4v1h-4zM48 22h1v1h-1zM52 22h4v1h-4zM57 22h2v1h-2zM60 22h1v1h-1zM62 22h2v1h-2zM65 22h2v1h-2zM69 22h8v1h-8zM4 23h6v1h-6zM13 23h1v1h-1zM15 23h7v1h-7zM25 23h1v1h-1zM27 23h2v1h-2zM31 23h1v1h-1zM36 23h3v1h-3zM41 23h3v1h-3zM45 23h1v1h-1zM47 23h4v1h-4zM56 23h2v1h-2zM59 23h1v1h-1zM62 23h2v1h-2zM67 23h3v1h-3zM71 23h1v1h-1zM75 23h1v1h-1zM6 24h1v1h-1zM8 24h4v1h-4zM13 24h2v1h-2zM21 24h8v1h-8zM30 24h1v1h-1zM32 24h2v1h-2zM36 24h1v1h-1zM39 24h1v1h-1zM41 24h1v1h-1zM44 24h9v1h-9zM54 24h2v1h-2zM62 24h1v1h-1zM65 24h2v1h-2zM68 24h2v1h-2zM72 24h1v1h-1zM74 24h3v1h-3zM6 25h3v1h-3zM11 25h1v1h-1zM13 25h7v1h-7zM25 25h4v1h-4zM30 25h1v1h-1zM32 25h1v1h-1zM38 25h2v1h-2zM43 25h1v1h-1zM46 25h2v1h-2zM49 25h3v1h-3zM56 25h1v1h-1zM58 25h2v1h-2zM63 25h2v1h-2zM67 25h2v1h-2zM73 25h3v1h-3zM5 26h1v1h-1zM7 26h2v1h-2zM10 26h1v1h-1zM13 26h1v1h-1zM15 26h2v1h-2zM19 26h1v1h-1zM21 26h1v1h-1zM23 26h1v1h-1zM26 26h1v1h-1zM28 26h1v1h-1zM31 26h2v1h-2zM34 26h4v1h-4zM40 26h1v1h-1zM42 26h3v1h-3zM48 26h1v1h-1zM50 26h1v1h-1zM52 26h6v1h-6zM59 26h4v1h-4zM65 26h2v1h-2zM69 26h1v1h-1zM71 26h2v1h-2zM74 26h1v1h-1zM76 26h1v1h-1zM7 27h1v1h-1zM9 27h1v1h-1zM12 27h2v1h-2zM17 27h1v1h-1zM21 27h3v1h-3zM26 27h1v1h-1zM28 27h1v1h-1zM31 27h1v1h-1zM46 27h4v1h-4zM52 27h1v1h-1zM58 27h4v1h-4zM63 27h2v1h-2zM66 27h1v1h-1zM68 27h1v1h-1zM70 27h2v1h-2zM76 27h1v1h-1zM4 28h1v1h-1zM6 28h7v1h-7zM20 28h1v1h-1zM22 28h1v1h-1zM25 28h1v1h-1zM28 28h5v1h-5zM35 28h2v1h-2zM38 28h1v1h-1zM41 28h1v1h-1zM43 28h2v1h-2zM46 28h1v1h-1zM48 28h9v1h-9zM58 28h1v1h-1zM64 28h2v1h-2zM68 28h5v1h-5zM74 28h1v1h-1zM5 29h4v1h-4zM12 29h1v1h-1zM14 29h3v1h-3zM18 29h1v1h-1zM20 29h1v1h-1zM23 29h2v1h-2zM28 29h1v1h-1zM32 29h2v1h-2zM35 29h4v1h-4zM40 29h3v1h-3zM44 29h5v1h-5zM52 29h1v1h-1zM55 29h1v1h-1zM59 29h1v1h-1zM61 29h1v1h-1zM63 29h2v1h-2zM66 29h1v1h-1zM68 29h1v1h-1zM72 29h4v1h-4zM5 30h2v1h-2zM8 30h1v1h-1zM10 30h1v1h-1zM12 30h1v1h-1zM14 30h2v1h-2zM17 30h1v1h-1zM19 30h5v1h-5zM27 30h2v1h-2zM30 30h1v1h-1zM32 30h1v1h-1zM36 30h2v1h-2zM41 30h1v1h-1zM45 30h1v1h-1zM47 30h2v1h-2zM50 30h1v1h-1zM52 30h3v1h-3zM56 30h2v1h-2zM59 30h2v1h-2zM62 30h1v1h-1zM64 30h5v1h-5zM70 30h1v1h-1zM72 30h2v1h-2zM76 30h1v1h-1zM4 31h1v1h-1zM6 31h3v1h-3zM12 31h2v1h-2zM16 31h3v1h-3zM20 31h3v1h-3zM24 31h3v1h-3zM28 31h1v1h-1zM32 31h1v1h-1zM36 31h3v1h-3zM40 31h1v1h-1zM43 31h6v1h-6zM52 31h1v1h-1zM56 31h1v1h-1zM59 31h3v1h-3zM63 31h1v1h-1zM68 31h1v1h-1zM72 31h1v1h-1zM76 31h1v1h-1zM4 32h1v1h-1zM6 32h1v1h-1zM8 32h5v1h-5zM14 32h1v1h-1zM16 32h2v1h-2zM20 32h4v1h-4zM25 32h1v1h-1zM28 32h6v1h-6zM36 32h2v1h-2zM42 32h1v1h-1zM46 32h7v1h-7zM55 32h2v1h-2zM61 32h2v1h-2zM65 32h1v1h-1zM68 32h9v1h-9zM9 33h1v1h-1zM11 33h1v1h-1zM14 33h6v1h-6zM21 33h1v1h-1zM24 33h1v1h-1zM26 33h1v1h-1zM29 33h1v1h-1zM32 33h2v1h-2zM36 33h3v1h-3zM41 33h4v1h-4zM48 33h1v1h-1zM51 33h1v1h-1zM54 33h1v1h-1zM56 33h1v1h-1zM61 33h1v1h-1zM69 33h3v1h-3zM73 33h1v1h-1zM75 33h1v1h-1zM4 34h1v1h-1zM6 34h2v1h-2zM9 34h2v1h-2zM12 34h2v1h-2zM15 34h1v1h-1zM18 34h1v1h-1zM20 34h1v1h-1zM22 34h1v1h-1zM24 34h3v1h-3zM30 34h4v1h-4zM35 34h1v1h-1zM37 34h2v1h-2zM40 34h2v1h-2zM43 34h2v1h-2zM48 34h1v1h-1zM52 34h2v1h-2zM55 34h3v1h-3zM59 34h2v1h-2zM62 34h1v1h-1zM65 34h1v1h-1zM68 34h3v1h-3zM72 34h1v1h-1zM76 34h1v1h-1zM4 35h3v1h-3zM8 35h2v1h-2zM11 35h1v1h-1zM15 35h1v1h-1zM17 35h1v1h-1zM20 35h3v1h-3zM25 35h1v1h-1zM31 35h1v1h-1zM33 35h2v1h-2zM36 35h2v1h-2zM39 35h2v1h-2zM42 35h1v1h-1zM46 35h1v1h-1zM50 35h5v1h-5zM59 35h1v1h-1zM61 35h1v1h-1zM63 35h1v1h-1zM66 35h2v1h-2zM70 35h3v1h-3zM75 35h1v1h-1zM9 36h2v1h-2zM13 36h1v1h-1zM15 36h1v1h-1zM19 36h2v1h-2zM23 36h3v1h-3zM27 36h4v1h-4zM33 36h1v1h-1zM36 36h1v1h-1zM39 36h3v1h-3zM46 36h2v1h-2zM52 36h1v1h-1zM55 36h2v1h-2zM58 36h1v1h-1zM61 36h2v1h-2zM66 36h1v1h-1zM69 36h1v1h-1zM74 36h1v1h-1zM76 36h1v1h-1zM4 37h1v1h-1zM6 37h1v1h-1zM9 37h1v1h-1zM13 37h3v1h-3zM18 37h1v1h-1zM22 37h1v1h-1zM24 37h1v1h-1zM27 37h2v1h-2zM34 37h2v1h-2zM37 37h1v1h-1zM40 37h10v1h-10zM51 37h2v1h-2zM54 37h3v1h-3zM58 37h1v1h-1zM60 37h2v1h-2zM64 37h1v1h-1zM66 37h2v1h-2zM69 37h2v1h-2zM72 37h3v1h-3zM4 38h2v1h-2zM8 38h1v1h-1zM10 38h1v1h-1zM13 38h2v1h-2zM16 38h2v1h-2zM21 38h1v1h-1zM24 38h2v1h-2zM29 38h1v1h-1zM31 38h1v1h-1zM33 38h1v1h-1zM35 38h5v1h-5zM41 38h1v1h-1zM43 38h1v1h-1zM45 38h1v1h-1zM50 38h1v1h-1zM52 38h3v1h-3zM57 38h1v1h-1zM63 38h3v1h-3zM68 38h1v1h-1zM70 38h2v1h-2zM73 38h1v1h-1zM75 38h2v1h-2zM5 39h2v1h-2zM13 39h1v1h-1zM15 39h1v1h-1zM22 39h1v1h-1zM26 39h1v1h-1zM28 39h1v1h-1zM31 39h5v1h-5zM38 39h5v1h-5zM44 39h1v1h-1zM46 39h1v1h-1zM49 39h1v1h-1zM51 39h1v1h-1zM53 39h1v1h-1zM56 39h1v1h-1zM59 39h5v1h-5zM65 39h2v1h-2zM69 39h2v1h-2zM72 39h2v1h-2zM75 39h1v1h-1zM5 40h2v1h-2zM10 40h3v1h-3zM14 40h1v1h-1zM23 40h2v1h-2zM27 40h4v1h-4zM32 40h1v1h-1zM34 40h1v1h-1zM36 40h2v1h-2zM41 40h1v1h-1zM43 40h1v1h-1zM46 40h4v1h-4zM55 40h2v1h-2zM60 40h3v1h-3zM64 40h3v1h-3zM71 40h1v1h-1zM74 40h3v1h-3zM4 41h2v1h-2zM8 41h1v1h-1zM11 41h1v1h-1zM16 41h1v1h-1zM18 41h2v1h-2zM21 41h1v1h-1zM23 41h1v1h-1zM25 41h3v1h-3zM29 41h1v1h-1zM31 41h3v1h-3zM35 41h2v1h-2zM38 41h1v1h-1zM40 41h1v1h-1zM42 41h2v1h-2zM45 41h1v1h-1zM50 41h1v1h-1zM52 41h1v1h-1zM54 41h3v1h-3zM59 41h1v1h-1zM61 41h1v1h-1zM64 41h2v1h-2zM67 41h1v1h-1zM4 42h1v1h-1zM6 42h2v1h-2zM9 42h2v1h-2zM12 42h1v1h-1zM14 42h1v1h-1zM18 42h2v1h-2zM22 42h1v1h-1zM28 42h3v1h-3zM32 42h1v1h-1zM35 42h1v1h-1zM37 42h3v1h-3zM41 42h1v1h-1zM43 42h1v1h-1zM47 42h4v1h-4zM52 42h7v1h-7zM62 42h2v1h-2zM66 42h1v1h-1zM71 42h1v1h-1zM74 42h3v1h-3zM6 43h4v1h-4zM11 43h5v1h-5zM18 43h3v1h-3zM22 43h1v1h-1zM24 43h2v1h-2zM28 43h1v1h-1zM30 43h4v1h-4zM36 43h6v1h-6zM43 43h2v1h-2zM59 43h3v1h-3zM63 43h1v1h-1zM67 43h1v1h-1zM70 43h3v1h-3zM6 44h1v1h-1zM8 44h3v1h-3zM13 44h1v1h-1zM17 44h5v1h-5zM24 44h4v1h-4zM29 44h2v1h-2zM33 44h2v1h-2zM37 44h1v1h-1zM39 44h1v1h-1zM42 44h1v1h-1zM45 44h3v1h-3zM53 44h3v1h-3zM62 44h1v1h-1zM64 44h1v1h-1zM69 44h1v1h-1zM71 44h1v1h-1zM73 44h4v1h-4zM7 45h1v1h-1zM9 45h1v1h-1zM11 45h1v1h-1zM13 45h2v1h-2zM19 45h3v1h-3zM23 45h4v1h-4zM29 45h1v1h-1zM32 45h1v1h-1zM34 45h1v1h-1zM36 45h1v1h-1zM38 45h3v1h-3zM43 45h1v1h-1zM46 45h2v1h-2zM50 45h3v1h-3zM54 45h1v1h-1zM58 45h1v1h-1zM60 45h3v1h-3zM66 45h2v1h-2zM69 45h3v1h-3zM5 46h2v1h-2zM9 46h3v1h-3zM14 46h3v1h-3zM18 46h1v1h-1zM20 46h3v1h-3zM24 46h2v1h-2zM28 46h1v1h-1zM31 46h1v1h-1zM33 46h1v1h-1zM35 46h3v1h-3zM39 46h1v1h-1zM41 46h1v1h-1zM43 46h2v1h-2zM47 46h1v1h-1zM49 46h1v1h-1zM52 46h6v1h-6zM62 46h2v1h-2zM65 46h2v1h-2zM68 46h1v1h-1zM70 46h1v1h-1zM73 46h1v1h-1zM75 46h2v1h-2zM4 47h1v1h-1zM6 47h2v1h-2zM13 47h5v1h-5zM20 47h1v1h-1zM22 47h2v1h-2zM27 47h1v1h-1zM29 47h3v1h-3zM34 47h1v1h-1zM36 47h3v1h-3zM43 47h1v1h-1zM45 47h3v1h-3zM50 47h2v1h-2zM53 47h2v1h-2zM59 47h4v1h-4zM64 47h1v1h-1zM69 47h2v1h-2zM72 47h2v1h-2zM76 47h1v1h-1zM4 48h1v1h-1zM7 48h14v1h-14zM26 48h1v1h-1zM28 48h5v1h-5zM36 48h1v1h-1zM39 48h1v1h-1zM42 48h1v1h-1zM44 48h3v1h-3zM48 48h5v1h-5zM54 48h4v1h-4zM61 48h2v1h-2zM65 48h2v1h-2zM68 48h5v1h-5zM74 48h2v1h-2zM6 49h1v1h-1zM8 49h1v1h-1zM12 49h1v1h-1zM16 49h1v1h-1zM19 49h1v1h-1zM25 49h1v1h-1zM28 49h1v1h-1zM32 49h3v1h-3zM36 49h1v1h-1zM40 49h1v1h-1zM42 49h1v1h-1zM45 49h4v1h-4zM52 49h1v1h-1zM54 49h3v1h-3zM58 49h1v1h-1zM61 49h1v1h-1zM64 49h1v1h-1zM66 49h3v1h-3zM72 49h1v1h-1zM74 49h1v1h-1zM4 50h2v1h-2zM7 50h2v1h-2zM10 50h1v1h-1zM12 50h1v1h-1zM15 50h3v1h-3zM19 50h3v1h-3zM24 50h1v1h-1zM28 50h1v1h-1zM30 50h1v1h-1zM32 50h1v1h-1zM34 50h1v1h-1zM36 50h3v1h-3zM40 50h2v1h-2zM46 50h1v1h-1zM48 50h1v1h-1zM50 50h1v1h-1zM52 50h2v1h-2zM55 50h3v1h-3zM59 50h2v1h-2zM62 50h1v1h-1zM64 50h3v1h-3zM68 50h1v1h-1zM70 50h1v1h-1zM72 50h5v1h-5zM8 51h1v1h-1zM12 51h2v1h-2zM15 51h1v1h-1zM18 51h2v1h-2zM21 51h2v1h-2zM26 51h3v1h-3zM32 51h2v1h-2zM35 51h1v1h-1zM38 51h1v1h-1zM40 51h1v1h-1zM42 51h2v1h-2zM45 51h1v1h-1zM47 51h2v1h-2zM52 51h3v1h-3zM56 51h2v1h-2zM59 51h2v1h-2zM62 51h2v1h-2zM66 51h3v1h-3zM72 51h1v1h-1zM76 51h1v1h-1zM4 52h1v1h-1zM7 52h6v1h-6zM14 52h1v1h-1zM17 52h3v1h-3zM25 52h2v1h-2zM28 52h5v1h-5zM35 52h1v1h-1zM37 52h7v1h-7zM45 52h12v1h-12zM58 52h1v1h-1zM60 52h3v1h-3zM64 52h3v1h-3zM68 52h5v1h-5zM74 52h1v1h-1zM4 53h2v1h-2zM8 53h1v1h-1zM15 53h2v1h-2zM20 53h1v1h-1zM23 53h1v1h-1zM27 53h1v1h-1zM29 53h1v1h-1zM32 53h4v1h-4zM37 53h1v1h-1zM40 53h2v1h-2zM43 53h4v1h-4zM49 53h1v1h-1zM51 53h3v1h-3zM56 53h1v1h-1zM59 53h1v1h-1zM61 53h1v1h-1zM64 53h1v1h-1zM66 53h1v1h-1zM68 53h1v1h-1zM71 53h1v1h-1zM73 53h1v1h-1zM75 53h1v1h-1zM4 54h2v1h-2zM8 54h3v1h-3zM12 54h1v1h-1zM14 54h3v1h-3zM21 54h1v1h-1zM23 54h3v1h-3zM29 54h3v1h-3zM33 54h2v1h-2zM36 54h2v1h-2zM39 54h2v1h-2zM43 54h1v1h-1zM46 54h1v1h-1zM49 54h1v1h-1zM52 54h1v1h-1zM54 54h4v1h-4zM60 54h1v1h-1zM62 54h1v1h-1zM64 54h7v1h-7zM72 54h5v1h-5zM4 55h1v1h-1zM6 55h1v1h-1zM8 55h2v1h-2zM16 55h1v1h-1zM19 55h2v1h-2zM22 55h3v1h-3zM27 55h1v1h-1zM29 55h1v1h-1zM32 55h3v1h-3zM36 55h3v1h-3zM43 55h1v1h-1zM45 55h1v1h-1zM47 55h2v1h-2zM51 55h1v1h-1zM56 55h6v1h-6zM63 55h1v1h-1zM66 55h2v1h-2zM70 55h4v1h-4zM76 55h1v1h-1zM4 56h4v1h-4zM9 56h2v1h-2zM13 56h4v1h-4zM18 56h2v1h-2zM22 56h1v1h-1zM24 56h1v1h-1zM27 56h2v1h-2zM32 56h2v1h-2zM35 56h2v1h-2zM41 56h1v1h-1zM45 56h2v1h-2zM49 56h2v1h-2zM55 56h1v1h-1zM58 56h1v1h-1zM60 56h2v1h-2zM64 56h1v1h-1zM66 56h1v1h-1zM68 56h1v1h-1zM70 56h3v1h-3zM74 56h3v1h-3zM5 57h1v1h-1zM7 57h2v1h-2zM11 57h1v1h-1zM14 57h3v1h-3zM19 57h3v1h-3zM25 57h1v1h-1zM27 57h3v1h-3zM31 57h1v1h-1zM35 57h1v1h-1zM38 57h2v1h-2zM41 57h1v1h-1zM45 57h3v1h-3zM50 57h3v1h-3zM54 57h2v1h-2zM61 57h3v1h-3zM66 57h1v1h-1zM68 57h2v1h-2zM75 57h1v1h-1zM4 58h2v1h-2zM7 58h1v1h-1zM10 58h2v1h-2zM14 58h2v1h-2zM17 58h3v1h-3zM21 58h1v1h-1zM23 58h1v1h-1zM31 58h2v1h-2zM34 58h7v1h-7zM43 58h1v1h-1zM50 58h1v1h-1zM52 58h1v1h-1zM56 58h3v1h-3zM60 58h1v1h-1zM65 58h3v1h-3zM69 58h2v1h-2zM74 58h1v1h-1zM76 58h1v1h-1zM4 59h1v1h-1zM7 59h3v1h-3zM11 59h1v1h-1zM15 59h1v1h-1zM18 59h1v1h-1zM20 59h1v1h-1zM25 59h1v1h-1zM27 59h6v1h-6zM34 59h1v1h-1zM38 59h1v1h-1zM40 59h3v1h-3zM47 59h1v1h-1zM54 59h1v1h-1zM59 59h1v1h-1zM61 59h3v1h-3zM65 59h7v1h-7zM73 59h1v1h-1zM75 59h1v1h-1zM4 60h1v1h-1zM10 60h4v1h-4zM15 60h2v1h-2zM18 60h1v1h-1zM22 60h1v1h-1zM24 60h1v1h-1zM29 60h1v1h-1zM32 60h4v1h-4zM38 60h5v1h-5zM44 60h2v1h-2zM48 60h2v1h-2zM52 60h5v1h-5zM62 60h1v1h-1zM64 60h1v1h-1zM66 60h5v1h-5zM72 60h1v1h-1zM74 60h1v1h-1zM76 60h1v1h-1zM6 61h1v1h-1zM8 61h1v1h-1zM13 61h4v1h-4zM19 61h1v1h-1zM21 61h1v1h-1zM25 61h1v1h-1zM27 61h2v1h-2zM32 61h3v1h-3zM36 61h3v1h-3zM40 61h1v1h-1zM42 61h2v1h-2zM45 61h2v1h-2zM49 61h2v1h-2zM52 61h1v1h-1zM55 61h2v1h-2zM58 61h1v1h-1zM61 61h2v1h-2zM64 61h1v1h-1zM66 61h1v1h-1zM69 61h1v1h-1zM71 61h1v1h-1zM73 61h2v1h-2zM4 62h1v1h-1zM8 62h1v1h-1zM10 62h3v1h-3zM14 62h4v1h-4zM19 62h1v1h-1zM23 62h1v1h-1zM29 62h1v1h-1zM32 62h3v1h-3zM37 62h4v1h-4zM46 62h3v1h-3zM50 62h6v1h-6zM57 62h1v1h-1zM59 62h2v1h-2zM62 62h2v1h-2zM65 62h4v1h-4zM70 62h1v1h-1zM75 62h2v1h-2zM4 63h1v1h-1zM6 63h3v1h-3zM12 63h4v1h-4zM17 63h1v1h-1zM19 63h1v1h-1zM25 63h1v1h-1zM27 63h1v1h-1zM29 63h1v1h-1zM32 63h4v1h-4zM37 63h1v1h-1zM39 63h2v1h-2zM45 63h4v1h-4zM51 63h1v1h-1zM54 63h1v1h-1zM56 63h1v1h-1zM61 63h1v1h-1zM63 63h2v1h-2zM66 63h1v1h-1zM68 63h2v1h-2zM72 63h1v1h-1zM76 63h1v1h-1zM4 64h1v1h-1zM6 64h1v1h-1zM8 64h1v1h-1zM10 64h3v1h-3zM15 64h1v1h-1zM17 64h4v1h-4zM22 64h1v1h-1zM24 64h2v1h-2zM27 64h1v1h-1zM29 64h1v1h-1zM31 64h3v1h-3zM35 64h2v1h-2zM38 64h2v1h-2zM41 64h1v1h-1zM44 64h4v1h-4zM49 64h5v1h-5zM55 64h3v1h-3zM60 64h1v1h-1zM62 64h1v1h-1zM64 64h4v1h-4zM70 64h3v1h-3zM74 64h1v1h-1zM4 65h1v1h-1zM6 65h2v1h-2zM13 65h2v1h-2zM18 65h1v1h-1zM23 65h1v1h-1zM25 65h1v1h-1zM28 65h2v1h-2zM32 65h3v1h-3zM36 65h3v1h-3zM41 65h1v1h-1zM43 65h4v1h-4zM49 65h2v1h-2zM55 65h2v1h-2zM61 65h2v1h-2zM64 65h1v1h-1zM66 65h1v1h-1zM68 65h2v1h-2zM71 65h1v1h-1zM74 65h1v1h-1zM4 66h2v1h-2zM7 66h1v1h-1zM9 66h7v1h-7zM18 66h2v1h-2zM22 66h1v1h-1zM25 66h1v1h-1zM27 66h7v1h-7zM37 66h1v1h-1zM42 66h1v1h-1zM48 66h1v1h-1zM50 66h2v1h-2zM53 66h2v1h-2zM57 66h1v1h-1zM60 66h1v1h-1zM62 66h1v1h-1zM65 66h1v1h-1zM67 66h4v1h-4zM73 66h4v1h-4zM7 67h2v1h-2zM12 67h1v1h-1zM14 67h3v1h-3zM18 67h1v1h-1zM20 67h7v1h-7zM28 67h3v1h-3zM32 67h1v1h-1zM35 67h1v1h-1zM37 67h1v1h-1zM39 67h1v1h-1zM41 67h1v1h-1zM44 67h1v1h-1zM46 67h1v1h-1zM49 67h4v1h-4zM56 67h2v1h-2zM59 67h1v1h-1zM63 67h4v1h-4zM69 67h1v1h-1zM71 67h3v1h-3zM75 67h2v1h-2zM4 68h1v1h-1zM8 68h1v1h-1zM10 68h1v1h-1zM14 68h1v1h-1zM16 68h1v1h-1zM18 68h4v1h-4zM25 68h1v1h-1zM28 68h7v1h-7zM38 68h2v1h-2zM42 68h2v1h-2zM47 68h9v1h-9zM58 68h1v1h-1zM61 68h1v1h-1zM64 68h2v1h-2zM67 68h6v1h-6zM74 68h1v1h-1zM12 69h1v1h-1zM14 69h1v1h-1zM16 69h1v1h-1zM19 69h1v1h-1zM21 69h5v1h-5zM28 69h1v1h-1zM32 69h1v1h-1zM34 69h1v1h-1zM36 69h1v1h-1zM41 69h2v1h-2zM46 69h3v1h-3zM52 69h1v1h-1zM54 69h2v1h-2zM58 69h2v1h-2zM61 69h1v1h-1zM63 69h1v1h-1zM67 69h2v1h-2zM72 69h1v1h-1zM4 70h7v1h-7zM16 70h1v1h-1zM19 70h2v1h-2zM25 70h1v1h-1zM27 70h2v1h-2zM30 70h1v1h-1zM32 70h1v1h-1zM35 70h3v1h-3zM41 70h1v1h-1zM43 70h3v1h-3zM47 70h2v1h-2zM50 70h1v1h-1zM52 70h5v1h-5zM58 70h1v1h-1zM60 70h1v1h-1zM62 70h1v1h-1zM65 70h2v1h-2zM68 70h1v1h-1zM70 70h1v1h-1zM72 70h5v1h-5zM4 71h1v1h-1zM10 71h1v1h-1zM15 71h1v1h-1zM18 71h1v1h-1zM20 71h6v1h-6zM27 71h2v1h-2zM32 71h1v1h-1zM36 71h3v1h-3zM41 71h2v1h-2zM44 71h2v1h-2zM48 71h1v1h-1zM52 71h1v1h-1zM54 71h1v1h-1zM58 71h2v1h-2zM62 71h2v1h-2zM66 71h1v1h-1zM68 71h1v1h-1zM72 71h1v1h-1zM76 71h1v1h-1zM4 72h1v1h-1zM6 72h3v1h-3zM10 72h1v1h-1zM12 72h3v1h-3zM16 72h1v1h-1zM19 72h2v1h-2zM22 72h1v1h-1zM25 72h1v1h-1zM27 72h6v1h-6zM37 72h4v1h-4zM43 72h3v1h-3zM48 72h5v1h-5zM55 72h1v1h-1zM58 72h1v1h-1zM61 72h1v1h-1zM66 72h7v1h-7zM74 72h1v1h-1zM76 72h1v1h-1zM4 73h1v1h-1zM6 73h3v1h-3zM10 73h1v1h-1zM12 73h1v1h-1zM15 73h4v1h-4zM20 73h1v1h-1zM22 73h1v1h-1zM26 73h1v1h-1zM28 73h1v1h-1zM31 73h2v1h-2zM34 73h1v1h-1zM40 73h1v1h-1zM43 73h1v1h-1zM49 73h1v1h-1zM51 73h1v1h-1zM54 73h1v1h-1zM59 73h5v1h-5zM66 73h2v1h-2zM70 73h4v1h-4zM76 73h1v1h-1zM4 74h1v1h-1zM6 74h3v1h-3zM10 74h1v1h-1zM12 74h4v1h-4zM18 74h1v1h-1zM22 74h2v1h-2zM26 74h5v1h-5zM32 74h2v1h-2zM37 74h3v1h-3zM42 74h2v1h-2zM46 74h1v1h-1zM49 74h4v1h-4zM58 74h2v1h-2zM62 74h1v1h-1zM65 74h1v1h-1zM67 74h1v1h-1zM69 74h1v1h-1zM71 74h1v1h-1zM76 74h1v1h-1zM4 75h1v1h-1zM10 75h1v1h-1zM14 75h1v1h-1zM16 75h2v1h-2zM20 75h3v1h-3zM24 75h1v1h-1zM29 75h1v1h-1zM33 75h2v1h-2zM36 75h2v1h-2zM39 75h1v1h-1zM41 75h2v1h-2zM48 75h2v1h-2zM53 75h2v1h-2zM56 75h1v1h-1zM59 75h3v1h-3zM63 75h1v1h-1zM66 75h1v1h-1zM68 75h3v1h-3zM72 75h2v1h-2zM76 75h1v1h-1zM4 76h7v1h-7zM14 76h2v1h-2zM18 76h4v1h-4zM23 76h2v1h-2zM26 76h3v1h-3zM30 76h1v1h-1zM33 76h1v1h-1zM35 76h2v1h-2zM38 76h4v1h-4zM43 76h1v1h-1zM45 76h1v1h-1zM47 76h3v1h-3zM51 76h5v1h-5zM57 76h1v1h-1zM61 76h1v1h-1zM64 76h2v1h-2zM67 76h1v1h-1zM70 76h1v1h-1zM75 76h2v1h-2z"/><circle cx="40.5" cy="40.5" r="7.5" fill="#fbf1c7"/><circle cx="40.5" cy="40.5" r="6.4" fill="#fabd2f"/><g shape-rendering="geometricPrecision"><g fill="#282828"><rect x="37.492" y="37.172" width="6.016" height="0.960"/><rect x="37.492" y="42.868" width="6.016" height="0.960"/><rect x="40.020" y="37.172" width="0.960" height="6.656"/><polygon points="43.211,37.755 43.805,38.509 37.789,43.245 37.195,42.491"/></g></g></svg>
